<svg width="454" height="117" viewBox="0 0 454 117" fill="none" xmlns="http://www.w3.org/2000/svg">
<path d="M207.839 96.3083V93.2208L208.597 92.1917L209.355 93.2208V97.8792L227.447 115.971V74.5875L225.605 73.0167V39.2167L223.655 36.8333V8.88333L220.351 9.75L213.526 0L206.701 9.75L203.397 8.88333V36.8333L201.447 39.2167V72.9625L199.605 74.5333V88.0208L207.839 96.3083ZM214.285 99.8833H212.768V93.1667L213.526 92.1375L214.285 93.1667V99.8833ZM222.572 79.95L223.33 78.9208L224.089 79.95V86.6667H222.572V79.95ZM222.572 93.1667L223.33 92.1375L224.089 93.1667V99.8833H222.572V93.1667ZM220.568 46.4208V72.7458H219.051V46.4208L219.81 45.3375L220.568 46.4208ZM218.13 16.9L218.889 15.7625L219.647 16.9V36.6708H218.13V16.9ZM217.643 79.95L218.401 78.9208L219.16 79.95V86.6667H217.643V79.95ZM217.643 93.1667L218.401 92.1375L219.16 93.1667V99.8833H217.643V93.1667ZM214.285 86.6667H212.768V79.95L213.526 78.9208L214.285 79.95V86.6667ZM212.768 16.9L213.526 15.7625L214.285 16.9V36.6708H212.768V16.9ZM212.768 46.4208L213.526 45.3375L214.285 46.4208V72.7458H212.768V46.4208ZM209.41 86.6667H207.839V79.95L208.597 78.9208L209.355 79.95V86.6667H209.41ZM207.405 16.9L208.164 15.7625L208.922 16.9V36.6708H207.405V16.9ZM206.485 46.4208L207.243 45.3375L208.001 46.4208V72.7458H206.485V46.4208ZM202.964 79.95L203.722 78.9208L204.48 79.95V86.6667H202.964V79.95Z" fill="#FF0500"/>
<path d="M0 47.7749H23.2375C42.4125 47.7749 57.9583 62.9416 57.9583 81.8458C57.9583 100.75 42.4125 115.917 23.2375 115.917H0V47.7749ZM23.2375 101.887C34.775 101.887 42.5208 92.7874 42.5208 81.8458C42.5208 70.9041 34.775 61.8041 23.2375 61.8041H15.275V101.887H23.2375Z" fill="#FF0500"/>
<path d="M85.7456 116.946C71.9331 116.946 60.5039 106.004 60.5039 91.9207C60.5039 77.8374 71.9331 66.8958 85.7456 66.8958C99.5581 66.8958 110.987 77.8374 110.987 91.9207C110.987 106.004 99.5581 116.946 85.7456 116.946ZM85.7456 103.404C91.8122 103.404 96.4164 98.6916 96.4164 91.8666C96.4164 85.0416 91.8122 80.3291 85.7456 80.3291C79.6789 80.3291 75.0747 85.0416 75.0747 91.8666C75.0747 98.6916 79.7331 103.404 85.7456 103.404Z" fill="#FF0500"/>
<path d="M175.446 91.0541C175.446 84.0666 173.442 80.004 168.513 80.004C163.421 80.004 159.901 83.8499 159.901 92.5707V115.862H145.438V90.9999C145.438 84.0124 143.434 79.9499 138.505 79.9499C133.413 79.9499 129.892 83.7957 129.892 92.5166V115.808H115.43V67.9249H129.892V72.7999C132.384 69.4416 136.501 66.8416 142.188 66.8416C149.121 66.8416 154.105 69.9832 157.03 75.2916C160.117 69.4416 166.726 66.8416 171.709 66.8416C183.409 66.8416 189.909 75.1832 189.909 88.5082V115.862H175.446V91.0541Z" fill="#FF0500"/>
<path d="M236.762 115.862V67.9249L251.224 52.6499V67.9249H264.658V80.4916H251.224V115.862H236.762Z" fill="#FF0500"/>
<path d="M290.55 116.946C276.738 116.946 265.309 106.004 265.309 91.9207C265.309 77.8374 276.738 66.8958 290.55 66.8958C304.363 66.8958 315.792 77.8374 315.792 91.9207C315.792 106.004 304.363 116.946 290.55 116.946ZM290.55 103.404C296.617 103.404 301.221 98.6916 301.221 91.8666C301.221 85.0416 296.617 80.3291 290.55 80.3291C284.484 80.3291 279.879 85.0416 279.879 91.8666C279.879 98.6916 284.538 103.404 290.55 103.404Z" fill="#FF0500"/>
<path d="M320.18 67.9248H350.784V80.4915H334.642V115.862H320.18V67.9248Z" fill="#FF0500"/>
<path d="M352.355 91.9207C352.355 77.6207 363.026 66.8958 377.597 66.8958C390.272 66.8958 401.485 74.7499 401.485 90.2957C401.485 91.5416 401.485 93.0583 401.214 95.3874H366.385C367.251 101.129 372.614 103.837 378.085 103.837C383.664 103.837 387.889 101.129 389.676 98.3666L400.401 106.437C395.905 112.775 387.943 117 377.868 117C363.785 116.946 352.355 107.358 352.355 91.9207ZM366.71 85.8541H387.022C385.776 80.7624 381.389 78.6499 377.164 78.6499C372.939 78.6499 367.955 80.5999 366.71 85.8541Z" fill="#FF0500"/>
<path d="M407.496 67.9249H421.959V72.7999C424.234 69.5499 429.054 66.8416 435.284 66.8416C447.092 66.8416 453.917 75.5624 453.917 88.129V115.862H439.454V90.6749C439.454 84.0666 436.854 80.004 431.709 80.004C426.238 80.004 422.013 83.9582 422.013 92.5707V115.862H407.55V67.9249H407.496Z" fill="#FF0500"/>
</svg>
